<?xml version="1.0" encoding="UTF-8"?>
<svg xmlns="http://www.w3.org/2000/svg" viewBox="0 0 675.21 446.38">
  <defs>
    <style>
      .cls-1 {
        fill: none;
        stroke: #000;
        stroke-linecap: square;
        stroke-linejoin: bevel;
        stroke-width: .74px;

      }
    </style>
  </defs>
  <g id="FRED">
    <polyline class="cls-1" points="235.49 135.62 225.03 134.74 213.7 134.74 199.76 137.36 185.81 141.72 172.74 147.82 159.66 154.79 147.46 165.25 137 178.32 125.67 194.01 116.09 210.57 111.73 221.03 109.98 230.62 109.98 240.21 109.98 248.05 109.98 249.79 107.37 256.77 105.63 264.61 106.5 271.58 111.73 276.81 116.09 282.91 118.7 289.02 121.32 296.86 126.54 303.83 135.26 307.32 145.72 309.06 155.31 310.8 165.77 312.55 177.1 315.16 186.68 318.65 196.27 322.14 203.24 324.75 210.22 328.24 218.93 332.59 229.39 339.57 240.72 345.67 243.34 346.54 252.92 350.03 265.13 352.64 278.2 356.13 291.27 361.36 304.35 367.46 317.42 373.56 330.5 379.66 342.7 385.76"/>
  </g>
  <g id="CLAUDETTE">
    <polyline class="cls-1" points="334.85 122.54 310.45 135.62 286.04 147.82 263.38 160.89 238.11 172.22 213.7 184.43 187.56 193.14 164.89 201.86 146.59 208.83 130.03 212.32 115.21 214.93 100.4 218.42 89.07 224.52 80.35 232.36 70.76 240.21 62.92 249.79 59.43 259.38 60.3 269.84 59.43 281.17 57.69 292.5 54.2 302.09 50.72 310.8"/>
  </g>
  <g id="IDA">
    <polyline class="cls-1" points="300.86 100.75 297.38 92.04 297.38 82.45 304.35 81.58 310.45 83.32 307.83 92.91 299.99 100.75 290.4 111.21 268.61 129.52 246.82 146.08 219.8 153.05 195.4 160.02 170.12 166.99 143.98 178.32 125.67 187.04 109.11 194.88 95.17 200.99 83.84 207.09 75.12 212.32 69.89 219.29 65.53 226.26 62.05 232.36 62.92 240.21 64.66 246.31 66.41 252.41 73.38 258.51 81.22 266.35 90.81 274.2 99.53 283.79 107.37 294.24 116.09 302.09 126.54 309.93 134.39 319.52 142.23 329.11 149.21 337.82 155.31 347.41 161.41 355.26 166.64 363.1"/>
  </g>
  <g id="BILL">
    <polyline class="cls-1" points="173.61 228.88 182.33 223.65 192.79 217.55 204.99 210.57 219.8 202.73 237.24 193.14 263.38 179.2 296.5 163.51 324.39 150.43 349.67 136.49 324.39 150.43 296.5 163.51 263.38 179.2 237.24 193.14 219.8 202.73"/>
  </g>
  <g id="DANNY">
    <polyline class="cls-1" points="219.8 247.18 204.99 244.56 191.04 239.33 177.97 232.36 161.41 228 150.95 224.52 161.41 228 177.97 232.36 191.04 239.33"/>
  </g>
  <g id="MINDY">
    <polyline class="cls-1" points="245.95 213.19 228.52 217.55 209.35 222.77 184.94 227.13 162.28 230.62 141.36 234.98 123.06 241.08 109.98 249.79 97.78 259.38"/>
  </g>
  <g id="PETER">
    <polyline class="cls-1" points="271.23 317.78 275.59 320.39 280.82 323.88 286.04 327.36 291.27 330.85 296.5 334.34 303.48 336.08 311.32 336.08 320.91 336.95 330.5 339.57 340.08 343.05 348.8 346.54 357.51 350.9 367.97 356.13 380.18 360.49 394.99 363.97"/>
  </g>
  <g id="KATE">
    <polyline class="cls-1" points="398.48 275.07 405.45 286.4 408.07 292.5 410.68 298.6 410.68 304.7 410.68 308.19 410.68 309.93 410.68 314.29 411.55 321.26 413.3 328.24 414.17 334.34 415.91 339.57 416.78 346.54 418.53 356.13 419.4 365.71 418.53 374.43 418.53 380.53 420.27 387.5 422.88 389.25 432.47 390.99 442.06 392.73"/>
  </g>
  <g id="NICHOLAS">
    <polyline class="cls-1" points="43.74 238.46 47.23 242.82 50.72 246.31 55.07 248.05 55.95 251.54 54.2 246.31 48.97 243.69 42.87 242.82 36.77 243.69 31.54 246.31 27.18 248.92 22.83 251.54 20.21 255.9 15.85 262.87 12.37 271.58 11.5 281.17 13.24 290.76 16.72 300.35 21.08 311.68 24.57 323.88"/>
  </g>
  <g id="LARRY">
    <polyline class="cls-1" points="293.02 99.01 259.03 123.41 235.49 140.85 224.16 150.43 217.19 155.66 196.27 172.22 179.71 186.17 165.77 197.5 152.69 208.83 141.36 221.03 133.52 232.36 127.42 242.82 125.67 253.28 126.54 264.61 129.16 275.07 131.77 284.66 133.52 292.5 136.13 300.35 139.62 307.32 143.98 314.29 150.95 321.26 160.54 326.49 169.25 331.72 177.97 338.7 187.56 345.67 196.27 350.03 205.86 353.51 222.42 357 241.59 362.23 262.51 370.07 286.92 378.79 310.45 386.63 333.11 393.61 354.9 399.71 374.95 406.68 395.86 413.65 416.78 420.62 438.57 424.98 459.49 425.85 481.28 424.98"/>
  </g>
  <g id="GRACE">
    <polyline class="cls-1" points="447.29 376.17 429.86 374.43 411.55 373.56 394.12 372.69 376.69 370.07 355.77 366.59 335.73 365.71 316.55 363.1 299.12 361.36 284.3 359.61 272.97 358.74 260.77 357.87 247.69 357 237.24 354.38 229.39 351.77 216.32 350.9 202.37 350.03 191.04 348.28 179.71 347.41 169.25 347.41 156.18 343.93 143.98 339.57 130.9 336.08 115.21 335.21 101.27 333.47 86.45 330.85 74.25 328.24 60.3 325.62 47.23 326.49 36.77 327.36 28.93 327.36 19.34 326.49 7.14 327.36 .16 330.85 7.14 327.36 19.34 326.49"/>
  </g>
  <g id="HENRI">
    <polyline class="cls-1" points="267.74 138.23 247.69 139.1 233.75 141.72 220.68 146.08 211.09 145.2 207.6 144.33 205.86 143.46 218.06 142.59 226.78 145.2 232.88 152.18 235.49 163.51 236.36 179.2 228.52 198.37 220.68 214.06 214.57 223.65 211.96 231.49 211.09 238.46 212.83 244.56 218.93 246.31 226.78 248.05 235.49 248.92 244.21 249.79 252.92 249.79 261.64 248.05 269.48 246.31 277.33 245.44 285.17 244.56 292.15 243.69 297.38 242.82 299.99 241.95 302.6 240.21 304.35 238.46 306.09 235.85 307.83 231.49 307.83 223.65 307.83 215.8 307.83 209.7 306.96 203.6 304.35 198.37 301.73 194.88"/>
  </g>
  <g id="TERESA">
    <polyline class="cls-1" points="315.68 196.63 303.48 200.11 297.38 204.47 292.15 207.96 286.04 207.96 283.43 207.96 287.79 209.7 295.63 214.06 306.09 221.03 313.94 233.23"/>
  </g>
  <g id="ANA">
    <polyline class="cls-1" points="360.13 179.2 342.7 186.17 328.75 192.27 321.78 198.37 315.68 204.47 310.45 208.83 307.83 207.96 313.06 208.83 315.68 206.21 321.78 201.86 337.47 195.76 357.51 197.5 374.95 203.6 385.41 208.83 392.38 219.29 379.3 232.36 370.59 242.82"/>
  </g>
  <g id="ODETTE">
    <polyline class="cls-1" points="493.48 232.36 501.33 220.16 510.04 207.09 517.89 194.88 522.24 181.81 523.12 167.86 517.01 155.66 510.91 144.33 505.68 134.74 501.33 126.9 496.97 122.54 493.48 122.54 488.25 125.16 484.77 122.54 490 121.67 495.23 122.54 498.71 127.77 503.94 137.36 506.56 146.95 504.81 156.53 489.12 159.15 472.56 154.79 458.62 142.59 448.16 130.39 435.09 121.67 421.14 117.31 404.58 114.7 382.79 122.54 361 134.74 336.6 148.69 314.81 159.15 295.63 165.25 277.33 169.61 259.03 173.09 243.34 179.2 232.01 186.17 220.68 194.01 210.22 201.86 201.5 209.7 198.01 216.67 198.89 225.39 202.37 233.23 206.73 241.95"/>
  </g>
  <g id="JULIAN">
    <polyline class="cls-1" points="544.91 66.76 553.62 92.91 548.39 116.44 540.55 136.49 523.99 153.05 505.68 167.86 483.02 183.55 456 194.01 437.7 206.21 424.63 214.93 417.65 222.77 409.81 226.26 403.71 227.13"/>
  </g>
  <g id="VICTOR">
    <polyline class="cls-1" points="478.66 351.77 487.38 357 496.97 363.1 505.68 370.07 512.66 375.3 519.63 381.4 525.73 389.25 534.45 396.22 542.29 397.96 550.13 401.45 558.85 404.06 566.7 407.55 577.15 411.04 587.61 415.4 597.2 421.5 606.79 426.73 618.12 431.08 627.71 434.57 635.55 436.31 644.27 438.93 653.85 442.41 662.57 445.9"/>
  </g>
  <g id="ROSE">
    <polyline class="cls-1" points="490.87 260.25 488.25 264.61 488.25 271.58 489.12 280.3 493.48 289.02 500.45 295.99 508.3 299.47 516.14 302.96 522.24 305.58 525.73 309.06 529.22 314.29 534.45 323.01 539.68 332.59 546.65 343.05 557.11 352.64 567.57 361.36 577.15 370.94 587.61 378.79 598.07 386.63 606.79 397.09 612.02 408.42 615.5 416.27"/>
  </g>
  <g id="WANDA">
    <polyline class="cls-1" points="595.46 130.39 568.44 150.43 550.13 165.25 537.06 174.84 528.35 180.94 523.12 183.55 519.63 182.68 520.5 179.2 523.12 172.22 527.47 161.76 524.86 148.69 520.5 140.85 514.4 138.23 509.17 139.97 508.3 143.46 508.3 149.56 508.3 156.53 508.3 164.38 506.56 172.22 503.94 179.2 502.2 185.3 501.33 191.4 499.58 197.5 494.35 202.73 489.12 207.09 483.02 209.7 476.05 209.7 469.08 203.6 470.82 194.88 475.18 189.65 476.05 188.78 469.08 187.91 453.39 188.78 437.7 180.07 422.01 171.35 408.07 163.51 397.61 157.41 383.66 154.79 370.59 153.05 359.26 152.18 347.93 153.05 333.11 156.53 314.81 160.02 297.38 163.51 279.94 166.99 257.28 169.61 243.34 159.15 249.44 146.08 265.13 151.3 259.9 162.64 252.05 178.32 232.88 194.01 208.47 208.83 189.3 223.65"/>
  </g>
  <g id="SAM">
    <polyline class="cls-1" points="659.95 .52 632.94 25.8 601.56 44.1 571.92 58.05 544.91 66.76 515.27 71.99 487.38 65.89 509.17 51.94 508.3 76.35 501.33 101.62 474.31 125.16 443.8 146.08 419.4 159.15 399.35 169.61 384.53 175.71 371.46 181.81 361 187.04 349.67 194.88 339.21 204.47 330.5 215.8 322.65 227.13 318.29 238.46 314.81 252.41 314.81 268.1 317.42 282.04 322.65 295.12 327.88 306.45 334.85 315.16 341.83 323.88 348.8 329.98 354.9 335.21 361 340.44 367.1 344.8 372.33 349.15 377.56 352.64 382.79 356.13 388.02 359.61 393.25 363.1 398.48 368.33 403.71 372.69 408.94 376.17 413.3 380.53 415.91 384.02 418.53 386.63 423.76 388.38 428.98 390.12 435.09 392.73 442.93 395.35 450.77 397.09 458.62 399.71 468.21 403.19 479.54 405.81 491.74 407.55 503.07 410.17 514.4 411.91 526.6 413.65 540.55 416.27 554.49 418.01 565.82 419.75"/>
  </g>
</svg>